<svg width="32" height="32" viewBox="0 0 32 32" xmlns="http://www.w3.org/2000/svg">
  <defs>
    <linearGradient id="g" x1="6" y1="7" x2="26" y2="26" gradientUnits="userSpaceOnUse">
      <stop stop-color="#6E8BFF"/>
      <stop offset="0.52" stop-color="#A77BFF"/>
      <stop offset="1" stop-color="#4FD8C0"/>
    </linearGradient>
  </defs>
  <rect width="32" height="32" rx="7" fill="#0b0d12"/>
  <path d="M14 7.6 C 14.6 13.6 18 17.1 24 17.6 C 18 18.1 14.6 21.6 14 27.6 C 13.4 21.6 10 18.1 4 17.6 C 10 17.1 13.4 13.6 14 7.6 Z" fill="url(#g)"/>
  <path d="M24 5.2 C 24.2 7.6 25.6 9 28 9.2 C 25.6 9.4 24.2 10.8 24 13.2 C 23.8 10.8 22.4 9.4 20 9.2 C 22.4 9 23.8 7.6 24 5.2 Z" fill="url(#g)"/>
</svg>
